<?xml version="1.0" standalone="no"?>
<!DOCTYPE svg PUBLIC "-//W3C//DTD SVG 20010904//EN"
 "http://www.w3.org/TR/2001/REC-SVG-20010904/DTD/svg10.dtd">
<svg version="1.0" xmlns="http://www.w3.org/2000/svg"
 width="1080.000000pt" height="1080.000000pt" viewBox="0 0 1080.000000 1080.000000"
 preserveAspectRatio="xMidYMid meet">

<g transform="translate(0.000000,1080.000000) scale(0.100000,-0.100000)"
fill="#000000" stroke="none">
<path d="M0 5400 l0 -5400 5400 0 5400 0 0 5400 0 5400 -5400 0 -5400 0 0
-5400z m3328 808 c2 -13 -3 -18 -17 -18 -19 0 -21 -6 -21 -60 0 -47 -3 -60
-15 -60 -12 0 -15 13 -15 60 0 53 -2 60 -20 60 -14 0 -20 7 -20 21 0 18 5 20
52 17 41 -2 54 -7 56 -20z m537 9 c27 -20 10 -37 -30 -30 -31 5 -35 3 -41 -22
-4 -16 -2 -35 3 -44 12 -19 55 -21 61 -3 2 6 -3 12 -12 12 -9 0 -16 7 -16 16
0 11 8 14 33 12 39 -4 47 -33 19 -68 -41 -51 -132 -11 -132 58 1 60 69 102
115 69z m563 -14 c2 -11 -5 -26 -14 -34 -16 -12 -17 -12 -12 2 4 9 2 21 -4 27
-12 12 -1 35 15 29 7 -2 13 -13 15 -24z m-1008 -53 c23 -23 25 -39 6 -65 -27
-38 -106 -14 -106 32 0 20 37 53 60 53 11 0 29 -9 40 -20z m128 6 c18 -11 16
-86 -2 -86 -9 0 -16 12 -18 33 -2 20 -8 32 -18 32 -10 0 -16 -12 -18 -32 -5
-52 -32 -43 -32 10 0 24 2 46 5 48 7 7 70 3 83 -5z m69 -12 l16 -26 14 26 c14
26 24 32 36 20 3 -4 -10 -37 -29 -75 -25 -51 -40 -69 -54 -69 -20 0 -20 1 -5
30 14 28 14 33 -4 69 -28 54 -7 74 26 25z m379 13 c4 -3 -5 -11 -20 -16 -20
-8 -26 -17 -26 -41 0 -20 -5 -30 -15 -30 -11 0 -15 12 -15 48 l0 49 34 -1 c19
-1 38 -5 42 -9z m104 -7 c23 -23 24 -33 10 -61 -8 -14 -21 -19 -50 -19 -38 0
-60 18 -60 49 0 18 39 51 60 51 11 0 29 -9 40 -20z m70 -21 c7 -45 33 -46 40
-1 7 47 25 40 25 -10 0 -36 -3 -42 -25 -48 -41 -11 -68 5 -75 44 -4 19 -4 40
0 46 12 20 30 4 35 -31z m191 24 c14 -14 15 -61 2 -74 -6 -6 -23 -11 -39 -12
-21 -2 -29 -8 -29 -22 0 -11 -8 -21 -17 -23 -16 -3 -18 5 -18 66 0 38 3 71 6
74 9 10 84 2 95 -9z m144 6 c4 -6 -3 -13 -16 -16 l-23 -6 22 -8 c46 -17 13
-75 -36 -63 -27 8 -17 33 11 27 l22 -4 -22 17 c-13 9 -23 22 -23 28 0 29 51
49 65 25z m-2699 -123 c-9 -14 -16 -32 -16 -40 0 -9 -10 -21 -22 -27 -22 -11
-22 -11 -8 7 9 10 24 36 33 58 10 21 21 36 24 33 3 -4 -2 -18 -11 -31z m1111
2 c-3 -8 -6 -5 -6 6 -1 11 2 17 5 13 3 -3 4 -12 1 -19z m-963 -4 c3 -8 2 -12
-4 -9 -6 3 -10 10 -10 16 0 14 7 11 14 -7z m187 -27 c-10 -9 -11 -8 -5 6 3 10
9 15 12 12 3 -3 0 -11 -7 -18z m-224 -3 c-3 -3 -12 -4 -19 -1 -8 3 -5 6 6 6
11 1 17 -2 13 -5z m28 -4 c3 -5 1 -10 -4 -10 -6 0 -11 5 -11 10 0 6 2 10 4 10
3 0 8 -4 11 -10z m952 -32 c-3 -7 -5 -2 -5 12 0 14 2 19 5 13 2 -7 2 -19 0
-25z m-727 -9 c0 -5 -4 -9 -8 -9 -5 0 -9 7 -9 15 0 8 4 12 9 9 4 -3 8 -9 8
-15z m-355 1 c3 -5 1 -10 -4 -10 -6 0 -11 5 -11 10 0 6 2 10 4 10 3 0 8 -4 11
-10z m302 4 c-3 -3 -12 -4 -19 -1 -8 3 -5 6 6 6 11 1 17 -2 13 -5z m-117 -8
c0 -2 -7 -7 -16 -10 -8 -3 -12 -2 -9 4 6 10 25 14 25 6z m140 -16 c0 -5 -2
-10 -4 -10 -3 0 -8 5 -11 10 -3 6 -1 10 4 10 6 0 11 -4 11 -10z m1557 -13 c43
-23 63 -64 70 -145 7 -84 -11 -173 -40 -200 -31 -29 -95 -41 -214 -42 l-103 0
0 -80 0 -80 -70 0 -70 0 0 286 0 286 198 -4 c161 -3 203 -7 229 -21z m568 -37
l0 -55 -37 -3 -38 -3 0 -164 0 -164 38 -3 37 -3 0 -55 0 -55 -142 -3 -143 -3
0 61 0 60 35 0 35 0 0 165 0 165 -35 0 -35 0 0 60 0 61 143 -3 142 -3 0 -55z
m350 38 c9 -13 35 -53 58 -90 l43 -68 43 73 c66 107 61 104 146 106 41 1 75
-1 75 -4 0 -3 -39 -66 -86 -140 -47 -74 -84 -141 -81 -149 3 -8 40 -66 82
-130 42 -64 78 -123 81 -131 5 -12 -7 -15 -70 -15 l-76 0 -55 85 c-30 47 -57
85 -60 85 -3 0 -30 -38 -60 -85 l-55 -85 -75 0 c-41 0 -75 3 -75 7 0 3 36 62
80 130 45 68 83 130 87 138 3 9 -31 72 -81 150 -47 74 -86 137 -86 140 0 3 34
5 75 5 65 0 76 -3 90 -22z m1020 -38 l0 -55 -153 -3 -153 -3 3 -52 3 -52 118
-3 117 -3 0 -54 0 -55 -120 0 -120 0 0 -55 0 -54 153 -3 152 -3 0 -55 0 -55
-222 -3 -223 -2 0 285 0 285 223 -2 222 -3 0 -55z m365 -165 l0 -225 33 0 c17
-1 84 -2 147 -3 l115 -2 0 -55 0 -55 -217 -3 -218 -2 0 285 0 285 70 0 70 0 0
-225z m947 202 c52 -27 63 -61 63 -185 0 -97 -3 -113 -23 -143 -29 -44 -79
-57 -219 -58 l-108 -1 0 -80 0 -80 -70 0 -70 0 0 286 0 286 198 -4 c161 -3
203 -7 229 -21z m563 -37 l0 -60 -35 0 -35 0 0 -165 c0 -102 4 -165 10 -166 6
-1 15 -3 20 -4 6 -1 17 -3 25 -4 11 -1 15 -14 15 -56 l0 -56 -142 3 -143 3 0
55 0 55 35 1 35 0 3 166 2 167 -37 3 c-37 3 -38 4 -41 47 -5 73 -9 71 148 71
l140 0 0 -60z m380 -165 l0 -225 145 0 145 0 0 -60 0 -60 -215 0 -215 0 0 285
0 285 70 0 70 0 0 -225z m961 202 c53 -36 61 -74 57 -284 -3 -166 -5 -184 -24
-210 -39 -52 -64 -58 -239 -57 -251 0 -255 5 -255 289 0 283 2 284 261 285
157 0 168 -1 200 -23z m739 -37 l0 -60 -85 0 -85 0 0 -225 0 -225 -70 0 -70 0
0 225 0 225 -85 0 -85 0 0 60 0 60 240 0 240 0 0 -60z m-6693 28 c-3 -8 -6 -5
-6 6 -1 11 2 17 5 13 3 -3 4 -12 1 -19z m-1094 -13 c-3 -9 -8 -14 -10 -11 -3
3 -2 9 2 15 9 16 15 13 8 -4z m145 -10 c-3 -3 -9 2 -12 12 -6 14 -5 15 5 6 7
-7 10 -15 7 -18z m974 -27 c-6 -6 -7 0 -4 19 5 21 7 23 10 9 2 -10 0 -22 -6
-28z m-1094 -3 c-3 -3 -9 2 -12 12 -6 14 -5 15 5 6 7 -7 10 -15 7 -18z m112 5
c0 -5 -4 -10 -10 -10 -5 0 -10 5 -10 10 0 6 5 10 10 10 6 0 10 -4 10 -10z
m128 -98 c-10 -2 -18 -8 -18 -14 0 -6 -3 -8 -6 -5 -11 10 17 38 30 30 7 -5 5
-9 -6 -11z m487 4 c6 -2 -22 -5 -61 -7 -49 -3 -70 -1 -67 7 3 9 96 9 128 0z
m230 -12 c-8 -9 -15 -20 -15 -25 0 -5 -4 -9 -10 -9 -5 0 -2 13 8 29 9 16 20
27 24 25 5 -3 1 -12 -7 -20z m88 9 c-7 -2 -19 -2 -25 0 -7 3 -2 5 12 5 14 0
19 -2 13 -5z m44 -85 c-2 -13 -4 -3 -4 22 0 25 2 35 4 23 2 -13 2 -33 0 -45z
m-884 37 c-3 -9 -8 -14 -10 -11 -3 3 -2 9 2 15 9 16 15 13 8 -4z m153 -47 c-9
-12 -16 -19 -16 -15 0 11 24 47 28 42 2 -2 -3 -14 -12 -27z m-173 8 c4 -10 1
-13 -8 -9 -8 3 -12 9 -9 14 7 12 11 11 17 -5z m633 -1 c-35 -19 -40 -19 -24 0
7 8 22 14 33 15 16 0 14 -3 -9 -15z m104 1 c-7 -7 -13 -7 -20 0 -6 6 -3 10 10
10 13 0 16 -4 10 -10z m-160 -11 c0 -2 -6 -5 -13 -8 -8 -3 -14 1 -14 8 0 7 6
11 14 8 7 -3 13 -6 13 -8z m-190 -10 c7 -9 8 -15 2 -15 -5 0 -12 7 -16 15 -3
8 -4 15 -2 15 2 0 9 -7 16 -15z m-184 -21 c-4 -9 -9 -15 -11 -12 -3 3 -3 13 1
22 4 9 9 15 11 12 3 -3 3 -13 -1 -22z m538 10 c3 -8 2 -12 -4 -9 -6 3 -10 10
-10 16 0 14 7 11 14 -7z m-708 -5 c3 -6 1 -16 -5 -22 -9 -9 -10 -7 -5 7 5 13
4 17 -4 12 -7 -4 -12 -2 -12 3 0 14 17 14 26 0z m384 -48 c0 -11 3 -12 8 -4 5
8 12 8 26 -3 19 -13 19 -14 -6 -14 -20 0 -31 8 -42 31 -13 26 -13 29 -1 19 8
-7 15 -20 15 -29z m150 29 c0 -5 -5 -10 -11 -10 -5 0 -7 5 -4 10 3 6 8 10 11
10 2 0 4 -4 4 -10z m205 -26 c9 -15 12 -23 6 -20 -11 7 -35 46 -28 46 3 0 12
-12 22 -26z m143 -19 c-3 -3 -9 2 -12 12 -6 14 -5 15 5 6 7 -7 10 -15 7 -18z
m-748 5 c0 -5 -5 -10 -11 -10 -5 0 -7 5 -4 10 3 6 8 10 11 10 2 0 4 -4 4 -10z
m725 0 c3 -5 -1 -10 -10 -10 -9 0 -13 5 -10 10 3 6 8 10 10 10 2 0 7 -4 10
-10z m-1737 -97 c-10 -2 -18 -9 -18 -15 0 -6 -3 -9 -6 -5 -10 10 6 27 24 26
15 -1 15 -2 0 -6z m1232 3 c0 -3 -4 -8 -10 -11 -5 -3 -10 -1 -10 4 0 6 5 11
10 11 6 0 10 -2 10 -4z m-1157 -13 c-7 -2 -19 -2 -25 0 -7 3 -2 5 12 5 14 0
19 -2 13 -5z m910 -20 c-7 -2 -19 -2 -25 0 -7 3 -2 5 12 5 14 0 19 -2 13 -5z
m-643 -10 c0 -5 -10 -19 -21 -33 l-21 -25 18 33 c18 32 24 38 24 25z m675 -3
c-3 -5 -1 -10 6 -10 7 0 10 -3 6 -6 -9 -9 -28 6 -22 17 4 5 8 9 11 9 3 0 2 -4
-1 -10z m-882 -15 c-3 -9 -8 -14 -10 -11 -3 3 -2 9 2 15 9 16 15 13 8 -4z
m1072 -3 c-3 -3 -11 0 -18 7 -9 10 -8 11 6 5 10 -3 15 -9 12 -12z m-1265 -45
c-8 -9 -9 -7 -4 7 5 13 4 17 -4 12 -8 -5 -10 -2 -5 10 6 15 7 15 16 -1 6 -11
5 -21 -3 -28z m216 7 c-4 -12 -10 -14 -17 -7 -5 5 -7 17 -3 27 4 12 10 14 17
7 5 -5 7 -17 3 -27z m907 19 c-7 -2 -19 -2 -25 0 -7 3 -2 5 12 5 14 0 19 -2
13 -5z m667 -33 l0 -40 -52 2 -53 2 48 3 c46 4 47 5 47 39 0 18 2 34 5 34 3 0
5 -18 5 -40z m-587 13 c-18 -2 -48 -2 -65 0 -18 2 -4 4 32 4 36 0 50 -2 33 -4z
m-103 -7 c0 -3 -4 -8 -10 -11 -5 -3 -10 -1 -10 4 0 6 5 11 10 11 6 0 10 -2 10
-4z m177 -66 l15 -25 -21 24 c-12 13 -20 33 -20 45 1 19 2 19 6 1 3 -10 12
-31 20 -45z m-880 28 c-3 -8 -6 -5 -6 6 -1 11 2 17 5 13 3 -3 4 -12 1 -19z
m-349 -8 c-7 -10 -14 -17 -17 -15 -4 4 18 35 25 35 2 0 -1 -9 -8 -20z m152 16
c0 -3 -4 -8 -10 -11 -5 -3 -10 -1 -10 4 0 6 5 11 10 11 6 0 10 -2 10 -4z m864
-11 c-4 -8 -11 -12 -16 -9 -6 4 -5 10 3 15 19 12 19 11 13 -6z m-206 -2 c-21
-2 -55 -2 -75 0 -21 2 -4 4 37 4 41 0 58 -2 38 -4z m145 0 c-7 -2 -19 -2 -25
0 -7 3 -2 5 12 5 14 0 19 -2 13 -5z m350 0 c-13 -2 -33 -2 -45 0 -13 2 -3 4
22 4 25 0 35 -2 23 -4z m-1283 -25 c0 -9 4 -8 11 2 9 13 10 13 6 0 -2 -8 -13
-15 -24 -16 -14 -1 -20 3 -16 12 6 17 23 18 23 2z m57 -14 c-3 -3 -12 -4 -19
-1 -8 3 -5 6 6 6 11 1 17 -2 13 -5z m521 -1 c-15 -2 -42 -2 -60 0 -18 2 -6 4
27 4 33 0 48 -2 33 -4z m205 0 c-7 -2 -21 -2 -30 0 -10 3 -4 5 12 5 17 0 24
-2 18 -5z m100 0 c-13 -2 -33 -2 -45 0 -13 2 -3 4 22 4 25 0 35 -2 23 -4z
m660 0 c-46 -2 -120 -2 -165 0 -46 1 -9 3 82 3 91 0 128 -2 83 -3z m194 1 c-3
-3 -12 -4 -19 -1 -8 3 -5 6 6 6 11 1 17 -2 13 -5z m-1032 -84 c3 -5 -1 -10
-10 -10 -9 0 -13 5 -10 10 3 6 8 10 10 10 2 0 7 -4 10 -10z m26 -13 c-10 -9
-11 -8 -5 6 3 10 9 15 12 12 3 -3 0 -11 -7 -18z m66 17 c-3 -3 -12 -4 -19 -1
-8 3 -5 6 6 6 11 1 17 -2 13 -5z m293 2 c0 -9 -40 -13 -46 -5 -3 5 6 9 20 9
14 0 26 -2 26 -4z m620 -3 c0 -5 -73 -7 -162 -5 -305 4 -333 8 -85 10 136 1
247 -1 247 -5z m-957 -28 c-3 -9 -8 -14 -10 -11 -3 3 -2 9 2 15 9 16 15 13 8
-4z m969 -113 c2 -34 0 -62 -4 -62 -5 0 -7 42 -6 93 1 94 5 82 10 -31z m-693
72 c-7 -8 -9 -18 -5 -21 4 -4 12 -1 17 7 9 13 10 13 6 0 -2 -8 -12 -14 -21
-14 -15 2 -21 -9 -16 -31 1 -5 -2 -6 -7 -2 -4 5 -8 12 -8 15 0 4 -4 13 -8 19
-5 9 -3 11 6 7 15 -5 31 21 22 37 -4 5 1 6 10 3 12 -5 13 -9 4 -20z m-189 12
c0 -2 -7 -6 -15 -10 -8 -3 -15 -1 -15 4 0 6 7 10 15 10 8 0 15 -2 15 -4z m10
-41 c-8 -9 -8 -15 -2 -15 6 0 14 5 17 10 4 6 11 7 17 4 12 -7 -29 -29 -46 -25
-5 1 -6 -4 -3 -12 3 -8 -1 -14 -9 -14 -8 0 -14 2 -14 4 0 8 45 71 49 68 2 -3
-2 -11 -9 -20z m-180 -50 c0 -5 -5 -3 -10 5 -5 8 -10 20 -10 25 0 6 5 3 10 -5
5 -8 10 -19 10 -25z m2938 -7 c7 -7 12 -30 12 -53 0 -53 -13 -65 -72 -65 l-48
0 0 65 0 65 48 0 c26 0 53 -5 60 -12z m202 3 c0 -6 -4 -13 -10 -16 -5 -3 -10
-21 -10 -40 0 -19 5 -37 10 -40 21 -13 9 -25 -25 -25 -34 0 -46 12 -25 25 6 3
10 21 10 40 0 19 -4 37 -10 40 -21 13 -9 25 25 25 19 0 35 -4 35 -9z m220 -6
c0 -11 -11 -15 -36 -15 -35 0 -35 -1 -32 -37 2 -31 7 -39 26 -41 15 -2 22 2
22 12 0 9 -4 16 -10 16 -5 0 -10 5 -10 10 0 6 14 10 31 10 28 0 30 -2 27 -32
-3 -33 -3 -33 -58 -33 l-55 0 -3 49 c-5 69 0 76 53 76 33 0 45 -4 45 -15z
m195 -12 c-10 -36 -10 -43 -1 -76 6 -26 5 -27 -29 -27 -19 0 -35 5 -35 10 0 6
5 10 10 10 6 0 10 18 10 39 0 22 -4 43 -10 46 -21 13 -9 25 26 25 35 0 36 -1
29 -27z m235 16 c0 -6 -9 -13 -20 -16 -17 -4 -20 -14 -20 -54 0 -37 -4 -49
-15 -49 -11 0 -15 12 -15 50 0 43 -3 50 -20 50 -11 0 -20 7 -20 15 0 12 13 15
55 15 33 0 55 -4 55 -11z m220 -49 c24 -64 21 -82 -10 -62 -24 15 -60 16 -60
2 0 -5 -9 -10 -21 -10 -13 0 -19 5 -16 13 3 6 14 36 23 65 14 42 22 52 40 52
17 0 26 -12 44 -60z m180 5 l0 -55 35 0 c19 0 35 -4 35 -10 0 -5 -25 -10 -55
-10 l-55 0 0 65 c0 58 2 65 20 65 18 0 20 -7 20 -55z m445 40 c0 -5 -15 -11
-32 -13 -41 -4 -43 -22 -3 -22 37 0 62 -39 40 -65 -14 -17 -110 -22 -110 -5 0
6 18 10 40 10 29 0 40 4 40 15 0 10 -10 15 -29 15 -36 0 -55 22 -47 55 6 24
10 26 54 23 26 -2 47 -7 47 -13z m250 -50 l0 -60 -55 0 -55 0 -3 49 c-5 72 -1
78 60 74 l53 -3 0 -60z m167 13 c3 -52 4 -53 36 -56 51 -5 37 -22 -18 -22
l-50 0 0 65 c0 50 3 65 14 65 11 0 16 -15 18 -52z m220 0 c3 -46 6 -53 26 -56
21 -3 22 0 22 52 0 49 2 56 20 56 17 0 20 -7 20 -52 0 -72 -7 -80 -66 -76
l-49 3 -3 63 c-2 50 0 62 12 62 11 0 16 -14 18 -52z m318 37 c0 -8 -9 -15 -20
-15 -17 0 -20 -7 -20 -50 0 -38 -4 -50 -15 -50 -11 0 -15 12 -15 50 0 43 -3
50 -20 50 -11 0 -20 7 -20 15 0 12 13 15 55 15 42 0 55 -3 55 -15z m175 -50
c0 -64 0 -65 -27 -65 -15 0 -30 5 -33 10 -3 6 -1 10 4 10 14 0 14 77 1 85 -17
11 -1 25 28 25 27 0 27 -1 27 -65z m249 49 c3 -9 6 -31 6 -49 0 -58 -7 -65
-65 -65 -39 0 -54 4 -59 16 -10 27 -7 89 6 102 18 18 105 15 112 -4z m184 -21
l22 -38 0 38 c0 30 4 37 20 37 18 0 20 -7 20 -65 0 -59 -2 -65 -20 -65 -13 0
-29 14 -43 38 l-22 37 -3 -37 c-2 -25 -8 -38 -18 -38 -11 0 -14 15 -14 65 0
56 3 65 18 65 10 0 27 -16 40 -37z m280 25 c-3 -7 -19 -14 -36 -16 -43 -4 -41
-22 3 -22 28 0 37 -5 44 -22 16 -44 3 -58 -55 -58 -61 0 -74 17 -17 22 50 4
55 26 6 30 -31 2 -39 7 -41 26 -6 42 4 52 54 52 32 0 44 -4 42 -12z m-6094
-31 c4 4 4 -1 0 -10 -7 -20 -7 -20 -23 13 -11 22 -10 23 2 8 8 -10 17 -15 21
-11z m-308 4 c-4 -5 -1 -12 4 -14 6 -3 5 -4 -2 -3 -15 3 -23 26 -8 26 6 0 9
-4 6 -9z m-36 -17 c0 -2 -7 -4 -15 -4 -8 0 -15 4 -15 10 0 5 7 7 15 4 8 -4 15
-8 15 -10z m467 0 c-3 -3 -12 -4 -19 -1 -8 3 -5 6 6 6 11 1 17 -2 13 -5z m106
-1 c-13 -2 -33 -2 -45 0 -13 2 -3 4 22 4 25 0 35 -2 23 -4z m437 -83 c0 -5 -2
-10 -4 -10 -3 0 -8 5 -11 10 -3 6 -1 10 4 10 6 0 11 -4 11 -10z m-1160 -33 c0
-5 -4 -5 -10 -2 -5 3 -10 14 -10 23 0 15 2 15 10 2 5 -8 10 -19 10 -23z m257
27 c-3 -3 -12 -4 -19 -1 -8 3 -5 6 6 6 11 1 17 -2 13 -5z m60 -10 c-3 -3 -12
-4 -19 -1 -8 3 -5 6 6 6 11 1 17 -2 13 -5z m833 -14 c-8 -5 -85 -9 -175 -8
l-160 2 165 6 c91 3 170 7 175 8 6 1 3 -3 -5 -8z m-1317 -39 c-10 -17 -21 -31
-26 -31 -4 0 3 15 15 34 28 42 35 40 11 -3z m111 31 c2 -4 -12 -6 -32 -4 -56
5 -62 10 -15 11 23 1 44 -3 47 -7z m369 1 c-7 -2 -19 -2 -25 0 -7 3 -2 5 12 5
14 0 19 -2 13 -5z m192 -23 c3 -6 -1 -7 -9 -4 -18 7 -21 14 -7 14 6 0 13 -4
16 -10z m92 -12 c-3 -8 -6 -5 -6 6 -1 11 2 17 5 13 3 -3 4 -12 1 -19z m593 7
c0 -8 -2 -15 -4 -15 -2 0 -6 7 -10 15 -3 8 -1 15 4 15 6 0 10 -7 10 -15z
m-396 -4 c3 -5 -1 -11 -9 -14 -9 -4 -12 -1 -8 9 6 16 10 17 17 5z m363 -23
c-3 -7 -5 -2 -5 12 0 14 2 19 5 13 2 -7 2 -19 0 -25z m-507 6 c0 -2 -7 -4 -15
-4 -8 0 -15 4 -15 10 0 5 7 7 15 4 8 -4 15 -8 15 -10z m-617 -9 c-3 -9 -8 -14
-10 -11 -3 3 -2 9 2 15 9 16 15 13 8 -4z m175 -10 c-3 -3 -9 2 -12 12 -6 14
-5 15 5 6 7 -7 10 -15 7 -18z m979 -17 c-3 -8 -6 -5 -6 6 -1 11 2 17 5 13 3
-3 4 -12 1 -19z m-954 -8 c-7 -25 -22 -36 -18 -13 2 10 4 21 4 26 1 4 5 7 10
7 5 0 7 -9 4 -20z m-273 -20 c0 -5 -5 -10 -11 -10 -5 0 -7 5 -4 10 3 6 8 10
11 10 2 0 4 -4 4 -10z m23 -5 c-3 -9 -8 -14 -10 -11 -3 3 -2 9 2 15 9 16 15
13 8 -4z m19 -17 c-8 -8 -9 -4 -5 13 4 13 8 18 11 10 2 -7 -1 -18 -6 -23z
m608 11 c0 -6 -4 -7 -10 -4 -5 3 -10 11 -10 16 0 6 5 7 10 4 6 -3 10 -11 10
-16z m200 0 c0 -6 -4 -7 -10 -4 -5 3 -10 11 -10 16 0 6 5 7 10 4 6 -3 10 -11
10 -16z m-277 -6 c-7 -2 -19 -2 -25 0 -7 3 -2 5 12 5 14 0 19 -2 13 -5z m-289
-19 c3 -8 2 -12 -4 -9 -6 3 -10 10 -10 16 0 14 7 11 14 -7z m932 -11 c-1 -2
-29 1 -62 7 -55 8 -56 9 -11 7 26 -1 47 1 47 6 0 4 6 2 14 -5 8 -7 13 -14 12
-15z m-1186 1 c0 -2 -9 -4 -20 -4 -11 0 -20 4 -20 9 0 5 9 7 20 4 11 -3 20 -7
20 -9z"/>
<path d="M3363 6124 c-8 -21 13 -42 28 -27 13 13 5 43 -11 43 -6 0 -13 -7 -17
-16z"/>
<path d="M4043 6124 c-8 -21 13 -42 28 -27 13 13 5 43 -11 43 -6 0 -13 -7 -17
-16z"/>
<path d="M4303 6124 c-8 -20 8 -36 26 -25 15 10 8 41 -9 41 -6 0 -13 -7 -17
-16z"/>
<path d="M3410 5745 l0 -85 93 0 c59 0 97 4 105 12 7 7 12 39 12 73 0 34 -5
66 -12 73 -8 8 -46 12 -105 12 l-93 0 0 -85z"/>
<path d="M6660 5745 l0 -85 93 0 c59 0 97 4 105 12 7 7 12 39 12 73 0 34 -5
66 -12 73 -8 8 -46 12 -105 12 l-93 0 0 -85z"/>
<path d="M8540 5821 c-15 -28 -13 -304 2 -319 13 -13 173 -17 202 -6 14 5 16
29 16 163 0 109 -4 161 -12 169 -8 8 -46 12 -105 12 -81 0 -94 -2 -103 -19z"/>
<path d="M4726 5053 c-12 -12 -6 -83 7 -83 37 0 51 62 18 79 -10 6 -21 7 -25
4z"/>
<path d="M5806 5015 c-3 -9 0 -15 9 -15 16 0 20 16 6 24 -5 3 -11 -1 -15 -9z"/>
<path d="M6654 5047 c-3 -9 -4 -28 -2 -44 2 -22 8 -28 28 -28 23 0 25 4 25 40
0 34 -3 40 -23 43 -13 2 -24 -3 -28 -11z"/>
<path d="M7780 5015 c0 -41 2 -45 25 -45 23 0 25 4 25 45 0 41 -2 45 -25 45
-23 0 -25 -4 -25 -45z"/>
</g>
</svg>
